<mxfile host="app.diagrams.net" modified="2023-12-02T11:12:01.040Z" agent="Mozilla/5.0 (Windows NT 10.0; Win64; x64) AppleWebKit/537.36 (KHTML, like Gecko) Chrome/107.0.0.0 Safari/537.36" etag="pU82e1gNbI5_t-wiGnG7" version="22.1.5" type="github">
  <diagram name="第 1 页" id="AjosPTf691L-NiroCMzd">
    <mxGraphModel dx="795" dy="480" grid="1" gridSize="10" guides="1" tooltips="1" connect="1" arrows="1" fold="1" page="1" pageScale="1" pageWidth="827" pageHeight="1169" math="0" shadow="0">
      <root>
        <mxCell id="0" />
        <mxCell id="1" parent="0" />
        <mxCell id="iK2jnnj9xMJp2dZtUg8F-3" style="edgeStyle=orthogonalEdgeStyle;orthogonalLoop=1;jettySize=auto;html=1;startArrow=none;startFill=0;rounded=0;endArrow=none;endFill=0;" edge="1" parent="1" source="iK2jnnj9xMJp2dZtUg8F-1" target="iK2jnnj9xMJp2dZtUg8F-2">
          <mxGeometry relative="1" as="geometry">
            <Array as="points">
              <mxPoint x="370" y="380" />
              <mxPoint x="210" y="380" />
            </Array>
          </mxGeometry>
        </mxCell>
        <mxCell id="iK2jnnj9xMJp2dZtUg8F-13" style="edgeStyle=orthogonalEdgeStyle;rounded=0;orthogonalLoop=1;jettySize=auto;html=1;entryX=0.5;entryY=0;entryDx=0;entryDy=0;endArrow=none;endFill=0;" edge="1" parent="1" source="iK2jnnj9xMJp2dZtUg8F-1" target="iK2jnnj9xMJp2dZtUg8F-11">
          <mxGeometry relative="1" as="geometry" />
        </mxCell>
        <mxCell id="iK2jnnj9xMJp2dZtUg8F-21" style="edgeStyle=orthogonalEdgeStyle;rounded=0;orthogonalLoop=1;jettySize=auto;html=1;endArrow=none;endFill=0;" edge="1" parent="1" source="iK2jnnj9xMJp2dZtUg8F-1" target="iK2jnnj9xMJp2dZtUg8F-20">
          <mxGeometry relative="1" as="geometry">
            <Array as="points">
              <mxPoint x="370" y="380" />
              <mxPoint x="580" y="380" />
            </Array>
          </mxGeometry>
        </mxCell>
        <mxCell id="iK2jnnj9xMJp2dZtUg8F-1" value="AI问答助手前台" style="rounded=1;whiteSpace=wrap;html=1;fillColor=#dae8fc;strokeColor=#6c8ebf;gradientColor=#7ea6e0;" vertex="1" parent="1">
          <mxGeometry x="310" y="280" width="120" height="60" as="geometry" />
        </mxCell>
        <mxCell id="iK2jnnj9xMJp2dZtUg8F-7" style="edgeStyle=orthogonalEdgeStyle;rounded=0;orthogonalLoop=1;jettySize=auto;html=1;endArrow=none;endFill=0;" edge="1" parent="1" source="iK2jnnj9xMJp2dZtUg8F-2" target="iK2jnnj9xMJp2dZtUg8F-6">
          <mxGeometry relative="1" as="geometry" />
        </mxCell>
        <mxCell id="iK2jnnj9xMJp2dZtUg8F-10" style="edgeStyle=orthogonalEdgeStyle;rounded=0;orthogonalLoop=1;jettySize=auto;html=1;endArrow=none;endFill=0;" edge="1" parent="1" source="iK2jnnj9xMJp2dZtUg8F-2" target="iK2jnnj9xMJp2dZtUg8F-8">
          <mxGeometry relative="1" as="geometry" />
        </mxCell>
        <mxCell id="iK2jnnj9xMJp2dZtUg8F-2" value="登录模块" style="rounded=1;whiteSpace=wrap;html=1;fillColor=#dae8fc;strokeColor=#6c8ebf;gradientColor=#7ea6e0;" vertex="1" parent="1">
          <mxGeometry x="160" y="450" width="100" height="40" as="geometry" />
        </mxCell>
        <mxCell id="iK2jnnj9xMJp2dZtUg8F-6" value="用&lt;br&gt;&lt;div style=&quot;&quot;&gt;&lt;span style=&quot;background-color: initial;&quot;&gt;户&lt;/span&gt;&lt;/div&gt;登&lt;br&gt;录" style="rounded=0;whiteSpace=wrap;html=1;direction=south;align=center;flipV=0;fillColor=#dae8fc;gradientColor=#7ea6e0;strokeColor=#6c8ebf;gradientDirection=east;" vertex="1" parent="1">
          <mxGeometry x="140" y="585" width="30" height="80" as="geometry" />
        </mxCell>
        <mxCell id="iK2jnnj9xMJp2dZtUg8F-8" value="用&lt;br&gt;&lt;div style=&quot;&quot;&gt;&lt;span style=&quot;background-color: initial;&quot;&gt;户&lt;/span&gt;&lt;/div&gt;注&lt;br&gt;册&lt;br&gt;" style="rounded=0;whiteSpace=wrap;html=1;direction=south;align=center;flipV=0;fillColor=#dae8fc;gradientColor=#7ea6e0;strokeColor=#6c8ebf;gradientDirection=east;" vertex="1" parent="1">
          <mxGeometry x="250" y="585" width="30" height="80" as="geometry" />
        </mxCell>
        <mxCell id="iK2jnnj9xMJp2dZtUg8F-17" style="edgeStyle=orthogonalEdgeStyle;rounded=0;orthogonalLoop=1;jettySize=auto;html=1;endArrow=none;endFill=0;" edge="1" parent="1" source="iK2jnnj9xMJp2dZtUg8F-11" target="iK2jnnj9xMJp2dZtUg8F-14">
          <mxGeometry relative="1" as="geometry">
            <Array as="points">
              <mxPoint x="370" y="530" />
              <mxPoint x="345" y="530" />
            </Array>
          </mxGeometry>
        </mxCell>
        <mxCell id="iK2jnnj9xMJp2dZtUg8F-18" style="edgeStyle=orthogonalEdgeStyle;rounded=0;orthogonalLoop=1;jettySize=auto;html=1;entryX=0;entryY=0.5;entryDx=0;entryDy=0;endArrow=none;endFill=0;" edge="1" parent="1" source="iK2jnnj9xMJp2dZtUg8F-11" target="iK2jnnj9xMJp2dZtUg8F-15">
          <mxGeometry relative="1" as="geometry">
            <Array as="points">
              <mxPoint x="370" y="530" />
              <mxPoint x="399" y="530" />
            </Array>
          </mxGeometry>
        </mxCell>
        <mxCell id="iK2jnnj9xMJp2dZtUg8F-19" style="edgeStyle=orthogonalEdgeStyle;rounded=0;orthogonalLoop=1;jettySize=auto;html=1;endArrow=none;endFill=0;" edge="1" parent="1" source="iK2jnnj9xMJp2dZtUg8F-11" target="iK2jnnj9xMJp2dZtUg8F-16">
          <mxGeometry relative="1" as="geometry">
            <Array as="points">
              <mxPoint x="370" y="530" />
              <mxPoint x="455" y="530" />
            </Array>
          </mxGeometry>
        </mxCell>
        <mxCell id="iK2jnnj9xMJp2dZtUg8F-11" value="消息模块" style="rounded=1;whiteSpace=wrap;html=1;fillColor=#dae8fc;strokeColor=#6c8ebf;gradientColor=#7ea6e0;" vertex="1" parent="1">
          <mxGeometry x="320" y="450" width="100" height="40" as="geometry" />
        </mxCell>
        <mxCell id="iK2jnnj9xMJp2dZtUg8F-14" value="消&lt;br&gt;息&lt;br&gt;发&lt;br&gt;送" style="rounded=0;whiteSpace=wrap;html=1;direction=south;align=center;flipV=0;fillColor=#dae8fc;gradientColor=#7ea6e0;strokeColor=#6c8ebf;gradientDirection=east;" vertex="1" parent="1">
          <mxGeometry x="330" y="585" width="30" height="80" as="geometry" />
        </mxCell>
        <mxCell id="iK2jnnj9xMJp2dZtUg8F-15" value="模&lt;br&gt;型&lt;br&gt;选&lt;br&gt;择" style="rounded=0;whiteSpace=wrap;html=1;direction=south;align=center;flipV=0;fillColor=#dae8fc;gradientColor=#7ea6e0;strokeColor=#6c8ebf;gradientDirection=east;" vertex="1" parent="1">
          <mxGeometry x="383.5" y="585" width="30" height="80" as="geometry" />
        </mxCell>
        <mxCell id="iK2jnnj9xMJp2dZtUg8F-16" value="角&lt;br&gt;色&lt;br&gt;选&lt;br&gt;择" style="rounded=0;whiteSpace=wrap;html=1;direction=south;align=center;flipV=0;fillColor=#dae8fc;gradientColor=#7ea6e0;strokeColor=#6c8ebf;gradientDirection=east;" vertex="1" parent="1">
          <mxGeometry x="440" y="585" width="30" height="80" as="geometry" />
        </mxCell>
        <mxCell id="iK2jnnj9xMJp2dZtUg8F-25" style="edgeStyle=orthogonalEdgeStyle;rounded=0;orthogonalLoop=1;jettySize=auto;html=1;entryX=0;entryY=0.5;entryDx=0;entryDy=0;endArrow=none;endFill=0;" edge="1" parent="1" source="iK2jnnj9xMJp2dZtUg8F-20" target="iK2jnnj9xMJp2dZtUg8F-22">
          <mxGeometry relative="1" as="geometry">
            <Array as="points">
              <mxPoint x="570" y="530" />
              <mxPoint x="545" y="530" />
            </Array>
          </mxGeometry>
        </mxCell>
        <mxCell id="iK2jnnj9xMJp2dZtUg8F-26" style="edgeStyle=orthogonalEdgeStyle;rounded=0;orthogonalLoop=1;jettySize=auto;html=1;endArrow=none;endFill=0;" edge="1" parent="1" source="iK2jnnj9xMJp2dZtUg8F-20" target="iK2jnnj9xMJp2dZtUg8F-23">
          <mxGeometry relative="1" as="geometry">
            <Array as="points">
              <mxPoint x="570" y="530" />
              <mxPoint x="605" y="530" />
            </Array>
          </mxGeometry>
        </mxCell>
        <mxCell id="iK2jnnj9xMJp2dZtUg8F-27" style="edgeStyle=orthogonalEdgeStyle;rounded=0;orthogonalLoop=1;jettySize=auto;html=1;endArrow=none;endFill=0;" edge="1" parent="1" source="iK2jnnj9xMJp2dZtUg8F-20" target="iK2jnnj9xMJp2dZtUg8F-24">
          <mxGeometry relative="1" as="geometry">
            <Array as="points">
              <mxPoint x="570" y="530" />
              <mxPoint x="675" y="530" />
            </Array>
          </mxGeometry>
        </mxCell>
        <mxCell id="iK2jnnj9xMJp2dZtUg8F-20" value="商品模块" style="rounded=1;whiteSpace=wrap;html=1;fillColor=#dae8fc;strokeColor=#6c8ebf;gradientColor=#7ea6e0;" vertex="1" parent="1">
          <mxGeometry x="520" y="450" width="100" height="40" as="geometry" />
        </mxCell>
        <mxCell id="iK2jnnj9xMJp2dZtUg8F-22" value="商&lt;br&gt;品&lt;br&gt;列&lt;br&gt;表" style="rounded=0;whiteSpace=wrap;html=1;direction=south;align=center;flipV=0;fillColor=#dae8fc;gradientColor=#7ea6e0;strokeColor=#6c8ebf;gradientDirection=east;" vertex="1" parent="1">
          <mxGeometry x="530" y="585" width="30" height="80" as="geometry" />
        </mxCell>
        <mxCell id="iK2jnnj9xMJp2dZtUg8F-23" value="商&lt;br&gt;品&lt;br&gt;下&lt;br&gt;单" style="rounded=0;whiteSpace=wrap;html=1;direction=south;align=center;flipV=0;fillColor=#dae8fc;gradientColor=#7ea6e0;strokeColor=#6c8ebf;gradientDirection=east;" vertex="1" parent="1">
          <mxGeometry x="590" y="585" width="30" height="80" as="geometry" />
        </mxCell>
        <mxCell id="iK2jnnj9xMJp2dZtUg8F-24" value="订&lt;br&gt;单&lt;br&gt;记&lt;br&gt;录" style="rounded=0;whiteSpace=wrap;html=1;direction=south;align=center;flipV=0;fillColor=#dae8fc;gradientColor=#7ea6e0;strokeColor=#6c8ebf;gradientDirection=east;" vertex="1" parent="1">
          <mxGeometry x="660" y="585" width="30" height="80" as="geometry" />
        </mxCell>
      </root>
    </mxGraphModel>
  </diagram>
</mxfile>
